<svg xmlns="http://www.w3.org/2000/svg" viewBox="0 0 32 32" fill="none">
  <!-- Left hemisphere -->
  <path d="M16 6
    C16 6 10 6 7.5 9
    C5 12 5 15 6 17.5
    C7 20 8 21 8.5 22.5
    C9 24 9 25.5 10.5 26
    C12 26.5 13.5 26 14.5 25
    C15 24.5 15.5 24 16 24
    L16 6Z"
    fill="#2E2C28"/>
  <!-- Right hemisphere -->
  <path d="M16 6
    C16 6 22 6 24.5 9
    C27 12 27 15 26 17.5
    C25 20 24 21 23.5 22.5
    C23 24 23 25.5 21.5 26
    C20 26.5 18.5 26 17.5 25
    C17 24.5 16.5 24 16 24
    L16 6Z"
    fill="#2E2C28"/>
  <!-- Center divide -->
  <line x1="16" y1="6" x2="16" y2="24" stroke="#EBE7DF" stroke-width="1"/>
  <!-- Left gyri -->
  <path d="M9 13 C10.5 11.5 12.5 12 13.5 13.5" stroke="#EBE7DF" stroke-width="1.1" stroke-linecap="round" fill="none"/>
  <path d="M8.5 18 C10 16.5 12.5 17 14 18.5" stroke="#EBE7DF" stroke-width="1.1" stroke-linecap="round" fill="none"/>
  <path d="M10.5 22 C12 21 13.5 21.5 14.5 22.5" stroke="#EBE7DF" stroke-width="1.1" stroke-linecap="round" fill="none"/>
  <!-- Right gyri -->
  <path d="M23 13 C21.5 11.5 19.5 12 18.5 13.5" stroke="#EBE7DF" stroke-width="1.1" stroke-linecap="round" fill="none"/>
  <path d="M23.5 18 C22 16.5 19.5 17 18 18.5" stroke="#EBE7DF" stroke-width="1.1" stroke-linecap="round" fill="none"/>
  <path d="M21.5 22 C20 21 18.5 21.5 17.5 22.5" stroke="#EBE7DF" stroke-width="1.1" stroke-linecap="round" fill="none"/>
</svg>
